<svg width="519" height="171" viewBox="0 0 519 171" fill="none" xmlns="http://www.w3.org/2000/svg">
<path d="M-31.48 135V35.6H6.008C11.4513 35.6 16.374 36.9963 20.776 39.789C25.2253 42.5343 28.7517 46.2263 31.355 50.865C33.9583 55.4563 35.26 60.4973 35.26 65.988C35.26 71.5733 33.911 76.6617 31.213 81.253C28.5623 85.8443 25.0123 89.5127 20.563 92.258C16.1137 95.0033 11.262 96.376 6.008 96.376H-10.18V135H-31.48ZM-10.18 75.076H3.594C5.48734 75.076 7.215 74.6027 8.777 73.656C10.339 72.662 11.5933 71.3603 12.54 69.751C13.4867 68.1417 13.96 66.3667 13.96 64.426C13.96 62.4853 13.4867 60.7103 12.54 59.101C11.5933 57.4917 10.339 56.2137 8.777 55.267C7.215 54.273 5.48734 53.776 3.594 53.776H-10.18V75.076ZM45.4152 135L45.3442 64H66.6442L66.7152 68.473C69.0819 66.4377 71.7799 64.852 74.8092 63.716C77.8386 62.58 81.0336 62.012 84.3942 62.012C86.9502 62.012 89.5536 62.3907 92.2042 63.148L83.8262 84.732C82.1696 83.9747 80.4656 83.596 78.7142 83.596C76.4896 83.596 74.4542 84.1403 72.6082 85.229C70.8096 86.2703 69.3659 87.714 68.2772 89.56C67.2359 91.3587 66.7152 93.3703 66.7152 95.595V135H45.4152ZM127.754 136.846C121.222 136.846 115.258 135.166 109.862 131.805C104.513 128.444 100.23 123.948 97.0111 118.315C93.8398 112.635 92.2541 106.363 92.2541 99.5C92.2541 94.2933 93.1771 89.4417 95.0231 84.945C96.8691 80.401 99.4015 76.425 102.62 73.017C105.886 69.5617 109.673 66.8637 113.98 64.923C118.287 62.9823 122.879 62.012 127.754 62.012C134.286 62.012 140.226 63.6923 145.575 67.053C150.971 70.4137 155.255 74.934 158.426 80.614C161.645 86.294 163.254 92.5893 163.254 99.5C163.254 104.659 162.331 109.487 160.485 113.984C158.639 118.481 156.083 122.457 152.817 125.912C149.598 129.32 145.835 131.994 141.528 133.935C137.268 135.876 132.677 136.846 127.754 136.846ZM127.754 115.546C130.452 115.546 132.866 114.812 134.996 113.345C137.173 111.878 138.877 109.937 140.108 107.523C141.339 105.062 141.954 102.387 141.954 99.5C141.954 96.518 141.291 93.7963 139.966 91.335C138.688 88.8737 136.96 86.933 134.783 85.513C132.653 84.0457 130.31 83.312 127.754 83.312C125.103 83.312 122.689 84.0693 120.512 85.584C118.382 87.0513 116.678 89.0157 115.4 91.477C114.169 93.9383 113.554 96.6127 113.554 99.5C113.554 102.529 114.193 105.251 115.471 107.665C116.796 110.079 118.524 111.996 120.654 113.416C122.831 114.836 125.198 115.546 127.754 115.546ZM225.28 64H246.58V135.71C246.58 141.106 245.492 145.934 243.314 150.194C241.184 154.501 238.25 158.17 234.51 161.199C230.771 164.228 226.464 166.524 221.588 168.086C216.76 169.695 211.648 170.5 206.252 170.5C201.235 170.5 196.431 169.53 191.839 167.589C187.248 165.696 183.154 163.045 179.556 159.637C175.959 156.229 173.119 152.277 171.036 147.78L190.49 138.976C191.484 141.106 192.786 142.905 194.395 144.372C196.005 145.887 197.827 147.046 199.862 147.851C201.898 148.656 204.028 149.058 206.252 149.058C208.714 149.058 211.08 148.798 213.352 148.277C215.624 147.756 217.66 146.952 219.458 145.863C221.257 144.774 222.677 143.378 223.718 141.674C224.76 140.017 225.28 138.029 225.28 135.71V128.752C223.15 131.166 220.618 133.13 217.683 134.645C214.796 136.112 211.459 136.846 207.672 136.846C202.513 136.846 197.685 135.876 193.188 133.935C188.692 131.994 184.716 129.32 181.26 125.912C177.852 122.457 175.178 118.481 173.237 113.984C171.297 109.487 170.326 104.659 170.326 99.5C170.326 94.3407 171.297 89.5127 173.237 85.016C175.178 80.5193 177.852 76.567 181.26 73.159C184.716 69.7037 188.692 67.0057 193.188 65.065C197.685 63.1243 202.513 62.154 207.672 62.154C211.459 62.154 214.796 62.9113 217.683 64.426C220.618 65.8933 223.15 67.834 225.28 70.248V64ZM207.956 116.398C210.891 116.398 213.565 115.641 215.979 114.126C218.393 112.611 220.31 110.576 221.73 108.02C223.15 105.464 223.86 102.624 223.86 99.5C223.86 96.376 223.15 93.536 221.73 90.98C220.31 88.424 218.393 86.3887 215.979 84.874C213.565 83.3593 210.891 82.602 207.956 82.602C205.069 82.602 202.418 83.3593 200.004 84.874C197.638 86.3887 195.744 88.424 194.324 90.98C192.904 93.536 192.194 96.376 192.194 99.5C192.194 102.624 192.904 105.464 194.324 108.02C195.744 110.576 197.638 112.611 200.004 114.126C202.418 115.641 205.069 116.398 207.956 116.398ZM263.685 135L263.614 64H284.914L284.985 68.473C287.351 66.4377 290.049 64.852 293.079 63.716C296.108 62.58 299.303 62.012 302.664 62.012C305.22 62.012 307.823 62.3907 310.474 63.148L302.096 84.732C300.439 83.9747 298.735 83.596 296.984 83.596C294.759 83.596 292.724 84.1403 290.878 85.229C289.079 86.2703 287.635 87.714 286.547 89.56C285.505 91.3587 284.985 93.3703 284.985 95.595V135H263.685ZM365.762 64H387.062V135H365.691L364.697 128.61C362.945 131.071 360.721 133.059 358.023 134.574C355.372 136.089 352.272 136.846 348.722 136.846C343.42 136.846 338.45 135.852 333.812 133.864C329.22 131.876 325.173 129.131 321.671 125.628C318.168 122.078 315.423 118.007 313.435 113.416C311.494 108.777 310.524 103.807 310.524 98.506C310.524 93.4413 311.447 88.708 313.293 84.306C315.139 79.904 317.718 76.0463 321.032 72.733C324.392 69.3723 328.25 66.7453 332.605 64.852C337.007 62.9587 341.716 62.012 346.734 62.012C350.804 62.012 354.496 62.864 357.81 64.568C361.17 66.2247 364.152 68.3073 366.756 70.816L365.762 64ZM348.154 116.398C351.088 116.398 353.763 115.641 356.177 114.126C358.591 112.611 360.508 110.576 361.928 108.02C363.348 105.464 364.058 102.624 364.058 99.5C364.058 96.376 363.348 93.536 361.928 90.98C360.508 88.424 358.591 86.3887 356.177 84.874C353.763 83.3593 351.088 82.602 348.154 82.602C345.219 82.602 342.545 83.3593 340.131 84.874C337.764 86.3887 335.871 88.424 334.451 90.98C333.078 93.536 332.392 96.376 332.392 99.5C332.392 102.624 333.102 105.464 334.522 108.02C335.942 110.576 337.835 112.611 340.202 114.126C342.616 115.641 345.266 116.398 348.154 116.398ZM401.315 135V64H422.615V68.473C424.982 66.4377 427.68 64.852 430.709 63.716C433.738 62.58 436.933 62.012 440.294 62.012C445.027 62.012 449.382 63.1007 453.358 65.278C457.334 67.408 460.553 70.2717 463.014 73.869C465.523 70.2717 468.741 67.408 472.67 65.278C476.646 63.1007 480.977 62.012 485.663 62.012C490.775 62.012 495.414 63.2663 499.579 65.775C503.744 68.2363 507.058 71.5497 509.519 75.715C512.028 79.8803 513.282 84.519 513.282 89.631V135H491.982V95.595C491.982 93.3703 491.438 91.3587 490.349 89.56C489.26 87.7613 487.817 86.3177 486.018 85.229C484.219 84.1403 482.208 83.596 479.983 83.596C477.758 83.596 475.723 84.1403 473.877 85.229C472.078 86.3177 470.635 87.7613 469.546 89.56C468.457 91.3587 467.913 93.3703 467.913 95.595V135H446.613V95.595C446.613 93.3703 446.069 91.3587 444.98 89.56C443.939 87.7613 442.495 86.3177 440.649 85.229C438.85 84.1403 436.839 83.596 434.614 83.596C432.437 83.596 430.425 84.1403 428.579 85.229C426.78 86.3177 425.337 87.7613 424.248 89.56C423.159 91.3587 422.615 93.3703 422.615 95.595V135H401.315Z" fill="white" fill-opacity="0.11"/>
</svg>
