<svg width="180" height="48" viewBox="0 0 180 48" fill="none" xmlns="http://www.w3.org/2000/svg">
<path d="M24.5 12.75C24.5 18.9632 19.4632 24 13.25 24H2V12.75C2 6.53679 7.03679 1.5 13.25 1.5C19.4632 1.5 24.5 6.53679 24.5 12.75Z" fill="#097FD9"/>
<path d="M24.5 35.25C24.5 29.0368 29.5368 24 35.75 24H47V35.25C47 41.4632 41.9632 46.5 35.75 46.5C29.5368 46.5 24.5 41.4632 24.5 35.25Z" fill="#097FD9"/>
<path d="M2 35.25C2 41.4632 7.03679 46.5 13.25 46.5H24.5V35.25C24.5 29.0368 19.4632 24 13.25 24C7.03679 24 2 29.0368 2 35.25Z" fill="#097FD9"/>
<path d="M47 12.75C47 6.53679 41.9632 1.5 35.75 1.5H24.5V12.75C24.5 18.9632 29.5368 24 35.75 24C41.9632 24 47 18.9632 47 12.75Z" fill="#097FD9"/>
<path d="M68.1 21.24C67.78 20.6533 67.34 20.2067 66.78 19.9C66.22 19.5933 65.5667 19.44 64.82 19.44C63.9933 19.44 63.26 19.6267 62.62 20C61.98 20.3733 61.48 20.9067 61.12 21.6C60.76 22.2933 60.58 23.0933 60.58 24C60.58 24.9333 60.76 25.7467 61.12 26.44C61.4933 27.1333 62.0067 27.6667 62.66 28.04C63.3133 28.4133 64.0733 28.6 64.94 28.6C66.0067 28.6 66.88 28.32 67.56 27.76C68.24 27.1867 68.6867 26.3933 68.9 25.38H64.1V23.24H71.66V25.68C71.4733 26.6533 71.0733 27.5533 70.46 28.38C69.8467 29.2067 69.0533 29.8733 68.08 30.38C67.12 30.8733 66.04 31.12 64.84 31.12C63.4933 31.12 62.2733 30.82 61.18 30.22C60.1 29.6067 59.2467 28.76 58.62 27.68C58.0067 26.6 57.7 25.3733 57.7 24C57.7 22.6267 58.0067 21.4 58.62 20.32C59.2467 19.2267 60.1 18.38 61.18 17.78C62.2733 17.1667 63.4867 16.86 64.82 16.86C66.3933 16.86 67.76 17.2467 68.92 18.02C70.08 18.78 70.88 19.8533 71.32 21.24H68.1ZM84.3316 19.92L77.4716 36.24H74.4916L76.8916 30.72L72.4516 19.92H75.5916L78.4516 27.66L81.3516 19.92H84.3316ZM99.6009 19.76C100.961 19.76 102.054 20.18 102.881 21.02C103.721 21.8467 104.141 23.0067 104.141 24.5V31H101.341V24.88C101.341 24.0133 101.121 23.3533 100.681 22.9C100.241 22.4333 99.6409 22.2 98.8809 22.2C98.1209 22.2 97.5143 22.4333 97.0609 22.9C96.6209 23.3533 96.4009 24.0133 96.4009 24.88V31H93.6009V24.88C93.6009 24.0133 93.3809 23.3533 92.9409 22.9C92.5009 22.4333 91.9009 22.2 91.1409 22.2C90.3676 22.2 89.7543 22.4333 89.3009 22.9C88.8609 23.3533 88.6409 24.0133 88.6409 24.88V31H85.8409V19.92H88.6409V21.26C89.0009 20.7933 89.4609 20.4267 90.0209 20.16C90.5943 19.8933 91.2209 19.76 91.9009 19.76C92.7676 19.76 93.5409 19.9467 94.2209 20.32C94.9009 20.68 95.4276 21.2 95.8009 21.88C96.1609 21.24 96.6809 20.7267 97.3609 20.34C98.0543 19.9533 98.8009 19.76 99.6009 19.76ZM110.884 24C110.884 22.6267 111.19 21.4 111.804 20.32C112.43 19.2267 113.277 18.38 114.344 17.78C115.424 17.1667 116.63 16.86 117.964 16.86C119.524 16.86 120.89 17.26 122.064 18.06C123.237 18.86 124.057 19.9667 124.524 21.38H121.304C120.984 20.7133 120.53 20.2133 119.944 19.88C119.37 19.5467 118.704 19.38 117.944 19.38C117.13 19.38 116.404 19.5733 115.764 19.96C115.137 20.3333 114.644 20.8667 114.284 21.56C113.937 22.2533 113.764 23.0667 113.764 24C113.764 24.92 113.937 25.7333 114.284 26.44C114.644 27.1333 115.137 27.6733 115.764 28.06C116.404 28.4333 117.13 28.62 117.944 28.62C118.704 28.62 119.37 28.4533 119.944 28.12C120.53 27.7733 120.984 27.2667 121.304 26.6H124.524C124.057 28.0267 123.237 29.14 122.064 29.94C120.904 30.7267 119.537 31.12 117.964 31.12C116.63 31.12 115.424 30.82 114.344 30.22C113.277 29.6067 112.43 28.76 111.804 27.68C111.19 26.6 110.884 25.3733 110.884 24ZM137.215 25.22C137.215 25.62 137.188 25.98 137.135 26.3H129.035C129.102 27.1 129.382 27.7267 129.875 28.18C130.368 28.6333 130.975 28.86 131.695 28.86C132.735 28.86 133.475 28.4133 133.915 27.52H136.935C136.615 28.5867 136.002 29.4667 135.095 30.16C134.188 30.84 133.075 31.18 131.755 31.18C130.688 31.18 129.728 30.9467 128.875 30.48C128.035 30 127.375 29.3267 126.895 28.46C126.428 27.5933 126.195 26.5933 126.195 25.46C126.195 24.3133 126.428 23.3067 126.895 22.44C127.362 21.5733 128.015 20.9067 128.855 20.44C129.695 19.9733 130.662 19.74 131.755 19.74C132.808 19.74 133.748 19.9667 134.575 20.42C135.415 20.8733 136.062 21.52 136.515 22.36C136.982 23.1867 137.215 24.14 137.215 25.22ZM134.315 24.42C134.302 23.7 134.042 23.1267 133.535 22.7C133.028 22.26 132.408 22.04 131.675 22.04C130.982 22.04 130.395 22.2533 129.915 22.68C129.448 23.0933 129.162 23.6733 129.055 24.42H134.315ZM145.399 19.76C146.719 19.76 147.786 20.18 148.599 21.02C149.412 21.8467 149.819 23.0067 149.819 24.5V31H147.019V24.88C147.019 24 146.799 23.3267 146.359 22.86C145.919 22.38 145.319 22.14 144.559 22.14C143.786 22.14 143.172 22.38 142.719 22.86C142.279 23.3267 142.059 24 142.059 24.88V31H139.259V19.92H142.059V21.3C142.432 20.82 142.906 20.4467 143.479 20.18C144.066 19.9 144.706 19.76 145.399 19.76ZM155.742 22.22V27.58C155.742 27.9533 155.828 28.2267 156.002 28.4C156.188 28.56 156.495 28.64 156.922 28.64H158.222V31H156.462C154.102 31 152.922 29.8533 152.922 27.56V22.22H151.602V19.92H152.922V17.18H155.742V19.92H158.222V22.22H155.742ZM170.535 25.22C170.535 25.62 170.509 25.98 170.455 26.3H162.355C162.422 27.1 162.702 27.7267 163.195 28.18C163.689 28.6333 164.295 28.86 165.015 28.86C166.055 28.86 166.795 28.4133 167.235 27.52H170.255C169.935 28.5867 169.322 29.4667 168.415 30.16C167.509 30.84 166.395 31.18 165.075 31.18C164.009 31.18 163.049 30.9467 162.195 30.48C161.355 30 160.695 29.3267 160.215 28.46C159.749 27.5933 159.515 26.5933 159.515 25.46C159.515 24.3133 159.749 23.3067 160.215 22.44C160.682 21.5733 161.335 20.9067 162.175 20.44C163.015 19.9733 163.982 19.74 165.075 19.74C166.129 19.74 167.069 19.9667 167.895 20.42C168.735 20.8733 169.382 21.52 169.835 22.36C170.302 23.1867 170.535 24.14 170.535 25.22ZM167.635 24.42C167.622 23.7 167.362 23.1267 166.855 22.7C166.349 22.26 165.729 22.04 164.995 22.04C164.302 22.04 163.715 22.2533 163.235 22.68C162.769 23.0933 162.482 23.6733 162.375 24.42H167.635ZM175.379 21.64C175.739 21.0533 176.206 20.5933 176.779 20.26C177.366 19.9267 178.033 19.76 178.779 19.76V22.7H178.039C177.159 22.7 176.493 22.9067 176.039 23.32C175.599 23.7333 175.379 24.4533 175.379 25.48V31H172.579V19.92H175.379V21.64Z" fill="white"/>
</svg>
